<svg xmlns="http://www.w3.org/2000/svg" viewBox="0 0 640 420" width="640" height="420" role="img" aria-label="Dokumentasi workshop Anyaman Bambu Borobudur">
  <title>Anyaman Bambu Borobudur</title>
  <defs>
    <linearGradient id="g" x1="0" y1="0" x2="0.4" y2="1">
      <stop offset="0" stop-color="#2A2413"/>
      <stop offset="0.6" stop-color="#1F1A0E"/>
      <stop offset="1" stop-color="#151208"/>
    </linearGradient>
    <radialGradient id="glow" cx="0.34" cy="0.22" r="0.7">
      <stop offset="0" stop-color="#A79A4B" stop-opacity="0.36"/>
      <stop offset="1" stop-color="#A79A4B" stop-opacity="0"/>
    </radialGradient>
  </defs>
  <rect width="640" height="420" fill="url(#g)"/>
  <rect width="640" height="420" fill="url(#glow)"/>
  <g stroke="#A79A4B" fill="none" stroke-width="2.4" opacity="0.55" stroke-linecap="round">
    <path d="M110 148l52 52-52 52 52 52-52 52"/>
    <path d="M162 148l52 52-52 52 52 52-52 52" opacity="0.85"/>
    <path d="M110 200l52 52-52 52 52 52" opacity="0.7"/>
    <path d="M266 148l-52 52 52 52-52 52 52 52" opacity="0.7"/>
    <path d="M318 148l-52 52 52 52-52 52 52 52" opacity="0.85"/>
    <path d="M370 148l-52 52 52 52-52 52 52 52" opacity="0.55"/>
  </g>
  <g stroke="#D9C87A" fill="none" stroke-width="1.6" opacity="0.5">
    <rect x="470" y="140" width="104" height="200" rx="10"/>
    <path d="M470 182h104M470 224h104M470 266h104M470 308h104"/>
    <path d="M506 140v200M538 140v200" opacity="0.7"/>
  </g>
  <g stroke="#7E7440" fill="none" stroke-width="1.4" opacity="0.5">
    <rect x="40" y="366" width="560" height="2"/>
  </g>
</svg>